<!DOCTYPE svg >
<svg xmlns="http://www.w3.org/2000/svg"
    xmlns:xlink="http://www.w3.org/1999/xlink" 
    viewBox="7.5,10,112.5,100">
                <symbol id="zig">
                    <line x1="00" y1="00" x2="05" y2="05" style="stroke:black;stroke-width:0.35" />
                    <line x1="05" y1="05" x2="10" y2="00" style="stroke:black;stroke-width:0.35" />
                </symbol>
                <symbol id="zigrow">
                    <use xlink:href="#zig" x="000" y="0"/>
                    <use xlink:href="#zig" x="010" y="0"/>
                    <use xlink:href="#zig" x="020" y="0"/>
                    <use xlink:href="#zig" x="030" y="0"/>
                    <use xlink:href="#zig" x="040" y="0"/>
                    <use xlink:href="#zig" x="050" y="0"/>
                    <use xlink:href="#zig" x="060" y="0"/>
                    <use xlink:href="#zig" x="070" y="0"/>
                    <use xlink:href="#zig" x="080" y="0"/>
                    <use xlink:href="#zig" x="090" y="0"/>
                    <use xlink:href="#zig" x="100" y="0"/>
                    <use xlink:href="#zig" x="110" y="0"/>
                </symbol>
                <symbol id="zigblock">
                <use xlink:href="#zigrow" x="0" y="0"/>
                <use xlink:href="#zigrow" x="0" y="2.5"/>
                <use xlink:href="#zigrow" x="0" y="5"/>
                <use xlink:href="#zigrow" x="0" y="7.5"/>
                <use xlink:href="#zigrow" x="0" y="10"/>
                <use xlink:href="#zigrow" x="0" y="12.5"/>
                <use xlink:href="#zigrow" x="0" y="15"/>
                <use xlink:href="#zigrow" x="0" y="17.5"/>
                <use xlink:href="#zigrow" x="0" y="20"/>
                <use xlink:href="#zigrow" x="0" y="22.5"/>
                <use xlink:href="#zigrow" x="0" y="25"/>
            </symbol>
            <use xlink:href="#zigblock" x="0" y="00"/>
            <use xlink:href="#zigblock" x="0" y="27.5"/>
            <use xlink:href="#zigblock" x="0" y="55"/>
            <use xlink:href="#zigblock" x="0" y="82.5"/>
</svg>